<mxfile host="Electron" modified="2024-04-28T00:14:11.586Z" agent="Mozilla/5.0 (Windows NT 10.0; Win64; x64) AppleWebKit/537.36 (KHTML, like Gecko) draw.io/24.2.5 Chrome/120.0.6099.109 Electron/28.1.0 Safari/537.36" etag="ck9hLUTY0znKwQ5PTM40" version="24.2.5" type="device">
  <diagram name="Page-1" id="Rr0b0561e7J5V_D_H-EX">
    <mxGraphModel dx="1778" dy="3402" grid="1" gridSize="10" guides="1" tooltips="1" connect="1" arrows="1" fold="1" page="1" pageScale="1" pageWidth="900" pageHeight="1600" math="0" shadow="0">
      <root>
        <mxCell id="0" />
        <mxCell id="1" parent="0" />
        <mxCell id="UIhAQtfHHSag_4oxzFJu-24" value="" style="rounded=0;whiteSpace=wrap;html=1;movable=0;resizable=0;rotatable=0;deletable=0;editable=0;locked=1;connectable=0;" vertex="1" parent="1">
          <mxGeometry width="2960" height="1280" as="geometry" />
        </mxCell>
        <mxCell id="UIhAQtfHHSag_4oxzFJu-25" value="" style="group" vertex="1" connectable="0" parent="1">
          <mxGeometry x="990" y="350" width="720" height="580" as="geometry" />
        </mxCell>
        <mxCell id="UIhAQtfHHSag_4oxzFJu-15" value="" style="group" vertex="1" connectable="0" parent="UIhAQtfHHSag_4oxzFJu-25">
          <mxGeometry width="320" height="580" as="geometry" />
        </mxCell>
        <mxCell id="71mly1k___0oOy5yhtRl-1" value="" style="shape=hexagon;perimeter=hexagonPerimeter2;whiteSpace=wrap;html=1;fixedSize=1;size=30;" parent="UIhAQtfHHSag_4oxzFJu-15" vertex="1">
          <mxGeometry x="40.00000000000001" width="240" height="60" as="geometry" />
        </mxCell>
        <mxCell id="UIhAQtfHHSag_4oxzFJu-9" value="" style="shape=hexagon;perimeter=hexagonPerimeter2;whiteSpace=wrap;html=1;fixedSize=1;size=30;rotation=-90;" vertex="1" parent="UIhAQtfHHSag_4oxzFJu-15">
          <mxGeometry x="-90" y="130" width="240" height="60" as="geometry" />
        </mxCell>
        <mxCell id="UIhAQtfHHSag_4oxzFJu-10" value="" style="shape=hexagon;perimeter=hexagonPerimeter2;whiteSpace=wrap;html=1;fixedSize=1;size=30;rotation=-90;" vertex="1" parent="UIhAQtfHHSag_4oxzFJu-15">
          <mxGeometry x="170" y="130" width="240" height="60" as="geometry" />
        </mxCell>
        <mxCell id="UIhAQtfHHSag_4oxzFJu-11" value="" style="shape=hexagon;perimeter=hexagonPerimeter2;whiteSpace=wrap;html=1;fixedSize=1;size=30;rotation=-90;" vertex="1" parent="UIhAQtfHHSag_4oxzFJu-15">
          <mxGeometry x="-90" y="390" width="240" height="60" as="geometry" />
        </mxCell>
        <mxCell id="UIhAQtfHHSag_4oxzFJu-12" value="" style="shape=hexagon;perimeter=hexagonPerimeter2;whiteSpace=wrap;html=1;fixedSize=1;size=30;rotation=-90;" vertex="1" parent="UIhAQtfHHSag_4oxzFJu-15">
          <mxGeometry x="170" y="390" width="240" height="60" as="geometry" />
        </mxCell>
        <mxCell id="UIhAQtfHHSag_4oxzFJu-13" value="" style="shape=hexagon;perimeter=hexagonPerimeter2;whiteSpace=wrap;html=1;fixedSize=1;size=30;" vertex="1" parent="UIhAQtfHHSag_4oxzFJu-15">
          <mxGeometry x="40.00000000000001" y="260" width="240" height="60" as="geometry" />
        </mxCell>
        <mxCell id="UIhAQtfHHSag_4oxzFJu-14" value="" style="shape=hexagon;perimeter=hexagonPerimeter2;whiteSpace=wrap;html=1;fixedSize=1;size=30;" vertex="1" parent="UIhAQtfHHSag_4oxzFJu-15">
          <mxGeometry x="40.00000000000001" y="520" width="240" height="60" as="geometry" />
        </mxCell>
        <mxCell id="UIhAQtfHHSag_4oxzFJu-16" value="" style="group" vertex="1" connectable="0" parent="UIhAQtfHHSag_4oxzFJu-25">
          <mxGeometry x="400" width="320" height="580" as="geometry" />
        </mxCell>
        <mxCell id="UIhAQtfHHSag_4oxzFJu-17" value="" style="shape=hexagon;perimeter=hexagonPerimeter2;whiteSpace=wrap;html=1;fixedSize=1;size=30;" vertex="1" parent="UIhAQtfHHSag_4oxzFJu-16">
          <mxGeometry x="40.00000000000001" width="240" height="60" as="geometry" />
        </mxCell>
        <mxCell id="UIhAQtfHHSag_4oxzFJu-18" value="" style="shape=hexagon;perimeter=hexagonPerimeter2;whiteSpace=wrap;html=1;fixedSize=1;size=30;rotation=-90;" vertex="1" parent="UIhAQtfHHSag_4oxzFJu-16">
          <mxGeometry x="-90" y="130" width="240" height="60" as="geometry" />
        </mxCell>
        <mxCell id="UIhAQtfHHSag_4oxzFJu-19" value="" style="shape=hexagon;perimeter=hexagonPerimeter2;whiteSpace=wrap;html=1;fixedSize=1;size=30;rotation=-90;" vertex="1" parent="UIhAQtfHHSag_4oxzFJu-16">
          <mxGeometry x="170" y="130" width="240" height="60" as="geometry" />
        </mxCell>
        <mxCell id="UIhAQtfHHSag_4oxzFJu-20" value="" style="shape=hexagon;perimeter=hexagonPerimeter2;whiteSpace=wrap;html=1;fixedSize=1;size=30;rotation=-90;" vertex="1" parent="UIhAQtfHHSag_4oxzFJu-16">
          <mxGeometry x="-90" y="390" width="240" height="60" as="geometry" />
        </mxCell>
        <mxCell id="UIhAQtfHHSag_4oxzFJu-21" value="" style="shape=hexagon;perimeter=hexagonPerimeter2;whiteSpace=wrap;html=1;fixedSize=1;size=30;rotation=-90;" vertex="1" parent="UIhAQtfHHSag_4oxzFJu-16">
          <mxGeometry x="170" y="390" width="240" height="60" as="geometry" />
        </mxCell>
        <mxCell id="UIhAQtfHHSag_4oxzFJu-22" value="" style="shape=hexagon;perimeter=hexagonPerimeter2;whiteSpace=wrap;html=1;fixedSize=1;size=30;" vertex="1" parent="UIhAQtfHHSag_4oxzFJu-16">
          <mxGeometry x="40.00000000000001" y="260" width="240" height="60" as="geometry" />
        </mxCell>
        <mxCell id="UIhAQtfHHSag_4oxzFJu-23" value="" style="shape=hexagon;perimeter=hexagonPerimeter2;whiteSpace=wrap;html=1;fixedSize=1;size=30;" vertex="1" parent="UIhAQtfHHSag_4oxzFJu-16">
          <mxGeometry x="40.00000000000001" y="520" width="240" height="60" as="geometry" />
        </mxCell>
        <mxCell id="UIhAQtfHHSag_4oxzFJu-26" value="" style="ellipse;whiteSpace=wrap;html=1;fillColor=#999999;" vertex="1" parent="1">
          <mxGeometry x="2810" y="70" width="80" height="80" as="geometry" />
        </mxCell>
        <mxCell id="UIhAQtfHHSag_4oxzFJu-27" value="" style="ellipse;whiteSpace=wrap;html=1;fillColor=#999999;" vertex="1" parent="1">
          <mxGeometry x="2710" y="70" width="80" height="80" as="geometry" />
        </mxCell>
        <mxCell id="UIhAQtfHHSag_4oxzFJu-28" value="" style="ellipse;whiteSpace=wrap;html=1;fillColor=#000000;" vertex="1" parent="1">
          <mxGeometry x="2610" y="70" width="80" height="80" as="geometry" />
        </mxCell>
        <mxCell id="UIhAQtfHHSag_4oxzFJu-29" value="" style="ellipse;whiteSpace=wrap;html=1;fillColor=#000000;" vertex="1" parent="1">
          <mxGeometry x="2510" y="70" width="80" height="80" as="geometry" />
        </mxCell>
        <mxCell id="UIhAQtfHHSag_4oxzFJu-31" value="START" style="text;html=1;align=center;verticalAlign=middle;whiteSpace=wrap;rounded=0;fontSize=120;" vertex="1" parent="1">
          <mxGeometry x="50" y="1120" width="400" height="110" as="geometry" />
        </mxCell>
        <mxCell id="UIhAQtfHHSag_4oxzFJu-33" value="ACK" style="text;html=1;align=center;verticalAlign=middle;whiteSpace=wrap;rounded=0;fontSize=120;" vertex="1" parent="1">
          <mxGeometry x="857" y="1120" width="400" height="110" as="geometry" />
        </mxCell>
        <mxCell id="UIhAQtfHHSag_4oxzFJu-34" value="PAUSE" style="text;html=1;align=center;verticalAlign=middle;whiteSpace=wrap;rounded=0;fontSize=120;" vertex="1" parent="1">
          <mxGeometry x="1663" y="1120" width="400" height="110" as="geometry" />
        </mxCell>
        <mxCell id="UIhAQtfHHSag_4oxzFJu-35" value="CANCEL" style="text;html=1;align=center;verticalAlign=middle;whiteSpace=wrap;rounded=0;fontSize=120;" vertex="1" parent="1">
          <mxGeometry x="2470" y="1120" width="400" height="110" as="geometry" />
        </mxCell>
        <mxCell id="UIhAQtfHHSag_4oxzFJu-36" value="&lt;font size=&quot;1&quot; style=&quot;&quot;&gt;&lt;b style=&quot;font-size: 180px;&quot;&gt;WORK&lt;/b&gt;&lt;/font&gt;" style="text;html=1;align=center;verticalAlign=middle;whiteSpace=wrap;rounded=0;fontSize=120;" vertex="1" parent="1">
          <mxGeometry x="1050" y="70" width="600" height="170" as="geometry" />
        </mxCell>
        <mxCell id="UIhAQtfHHSag_4oxzFJu-37" value="&lt;b style=&quot;&quot;&gt;&lt;font style=&quot;font-size: 180px;&quot;&gt;SHORT BREAK&lt;/font&gt;&lt;/b&gt;" style="text;html=1;align=center;verticalAlign=middle;whiteSpace=wrap;rounded=0;fontSize=120;" vertex="1" parent="1">
          <mxGeometry x="680" y="-610" width="1340" height="270" as="geometry" />
        </mxCell>
        <mxCell id="UIhAQtfHHSag_4oxzFJu-38" value="&lt;b style=&quot;&quot;&gt;&lt;font style=&quot;font-size: 180px;&quot;&gt;LONG BREAK&lt;/font&gt;&lt;/b&gt;" style="text;html=1;align=center;verticalAlign=middle;whiteSpace=wrap;rounded=0;fontSize=120;" vertex="1" parent="1">
          <mxGeometry x="730" y="-320" width="1240" height="270" as="geometry" />
        </mxCell>
      </root>
    </mxGraphModel>
  </diagram>
</mxfile>
